<svg xmlns="http://www.w3.org/2000/svg" xmlns:xlink="http://www.w3.org/1999/xlink" width="254" height="254" viewBox="0 0 254 254">
  <defs>
    <clipPath id="clip-My_Profile_Icon_Non_Active_1">
      <rect width="254" height="254"/>
    </clipPath>
  </defs>
  <g id="My_Profile_Icon_Non_Active_1" data-name="My Profile Icon Non Active – 1" clip-path="url(#clip-My_Profile_Icon_Non_Active_1)">
    <g id="user_1_" data-name="user (1)" transform="translate(48.89 33.888)">
      <path id="Path_5" data-name="Path 5" d="M131.982,89.9A43.5,43.5,0,0,0,163.765,76.73a43.5,43.5,0,0,0,13.168-31.782,43.5,43.5,0,0,0-13.169-31.782,44.94,44.94,0,0,0-63.563,0,43.494,43.494,0,0,0-13.169,31.78A43.5,43.5,0,0,0,100.2,76.731,43.509,43.509,0,0,0,131.982,89.9Zm-24.047-69a34,34,0,0,1,48.1,0A32.5,32.5,0,0,1,166,44.948,32.5,32.5,0,0,1,156.031,69a34,34,0,0,1-48.1,0,32.49,32.49,0,0,1-9.967-24.049A32.493,32.493,0,0,1,107.935,20.9Zm0,0" transform="translate(-55.308 0)" fill="#3a3a3c" stroke="#3a3a3c" stroke-width="1"/>
      <path id="Path_6" data-name="Path 6" d="M155.325,300.675a111.022,111.022,0,0,0-1.512-11.792,92.9,92.9,0,0,0-2.9-11.856,58.568,58.568,0,0,0-4.875-11.058,41.68,41.68,0,0,0-7.348-9.578,32.4,32.4,0,0,0-10.558-6.634,36.488,36.488,0,0,0-13.478-2.439c-1.905,0-3.748.782-7.306,3.1-2.19,1.428-4.751,3.08-7.61,4.906a43.6,43.6,0,0,1-9.847,4.338,38.236,38.236,0,0,1-24.089,0,43.477,43.477,0,0,1-9.84-4.337c-2.832-1.81-5.395-3.461-7.618-4.909-3.555-2.317-5.4-3.1-7.3-3.1a36.44,36.44,0,0,0-13.477,2.442A32.377,32.377,0,0,0,17,256.392a41.694,41.694,0,0,0-7.347,9.577,58.682,58.682,0,0,0-4.874,11.059,93.139,93.139,0,0,0-2.9,11.855,110.273,110.273,0,0,0-1.512,11.8C.125,304.243,0,307.952,0,311.7c0,9.742,3.1,17.629,9.2,23.445,6.031,5.74,14.011,8.65,23.717,8.65h89.861c9.7,0,17.683-2.91,23.716-8.65,6.108-5.812,9.205-13.7,9.205-23.446,0-3.76-.128-7.469-.377-11.023Zm-16.368,26.546c-3.985,3.793-9.276,5.637-16.176,5.637H32.921c-6.9,0-12.192-1.844-16.176-5.636-3.908-3.72-5.808-8.8-5.808-15.523,0-3.5.115-6.95.346-10.264a99.458,99.458,0,0,1,1.367-10.62,82.138,82.138,0,0,1,2.55-10.452,47.77,47.77,0,0,1,3.967-8.992,30.906,30.906,0,0,1,5.4-7.078,21.5,21.5,0,0,1,7.024-4.367,25.165,25.165,0,0,1,8.613-1.662c.383.2,1.065.592,2.17,1.313,2.248,1.465,4.84,3.137,7.7,4.966a54.187,54.187,0,0,0,12.36,5.523,49.165,49.165,0,0,0,30.816,0,54.244,54.244,0,0,0,12.367-5.527c2.932-1.874,5.45-3.5,7.7-4.963,1.1-.719,1.787-1.109,2.17-1.313a25.181,25.181,0,0,1,8.616,1.662,21.524,21.524,0,0,1,7.022,4.367,30.822,30.822,0,0,1,5.4,7.079,47.613,47.613,0,0,1,3.968,8.989,81.942,81.942,0,0,1,2.552,10.452,100.3,100.3,0,0,1,1.367,10.623v0c.232,3.3.349,6.753.35,10.26,0,6.725-1.9,11.8-5.809,15.521Zm0,0" transform="translate(0 -157.168)" fill="#3a3a3c" stroke="#3a3a3c" stroke-width="1"/>
    </g>
  </g>
</svg>
